<svg width="112" height="106" viewBox="0 0 112 106" fill="none" xmlns="http://www.w3.org/2000/svg">
<path d="M56 -3.52833e-08C70.8521 -4.4641e-08 85.0959 5.58391 95.598 15.5233C106.1 25.4628 112 38.9435 112 53C112 67.0565 106.1 80.5372 95.598 90.4767C85.0959 100.416 70.8521 106 56 106C41.1479 106 26.9041 100.416 16.402 90.4767C5.89998 80.5372 4.22495e-08 67.0565 3.33931e-08 53C2.45367e-08 38.9435 5.89998 25.4628 16.402 15.5233C26.9041 5.58391 41.1479 -2.59255e-08 56 -3.52833e-08ZM56 98.4286C68.7304 98.4286 80.9394 93.6424 89.9411 85.1228C98.9429 76.6033 104 65.0484 104 53C104 40.9516 98.9429 29.3967 89.9411 20.8771C80.9394 12.3576 68.7304 7.57143 56 7.57143C43.2696 7.57143 31.0606 12.3576 22.0589 20.8771C13.0571 29.3967 8 40.9516 8 53C8 65.0484 13.0571 76.6033 22.0589 85.1228C31.0606 93.6424 43.2696 98.4286 56 98.4286ZM44 34.0714C46.6667 34.0714 48 35.3333 48 37.8571L48 68.1429C48 70.6667 46.6667 71.9286 44 71.9286C41.3333 71.9286 40 70.6667 40 68.1429L40 37.8571C40 35.3333 41.3333 34.0714 44 34.0714ZM68 34.0714C70.6667 34.0714 72 35.3333 72 37.8571L72 68.1429C72 70.6667 70.6667 71.9286 68 71.9286C65.3333 71.9286 64 70.6667 64 68.1429L64 37.8571C64 35.3333 65.3333 34.0714 68 34.0714Z" fill="white"/>
</svg>
